<?xml version="1.0" encoding="utf-8"?>
<!-- Generator: Adobe Illustrator 26.4.1, SVG Export Plug-In . SVG Version: 6.00 Build 0)  -->
<svg version="1.1" id="Layer_2_00000130610800032346033090000008098465445154918794_"
	 xmlns="http://www.w3.org/2000/svg" xmlns:xlink="http://www.w3.org/1999/xlink" x="0px" y="0px" viewBox="0 0 411 538"
	 style="enable-background:new 0 0 411 538;" xml:space="preserve">
<style type="text/css">
	.st0{fill:#B58E5A;}
	.st1{fill-rule:evenodd;clip-rule:evenodd;fill:#B58E5A;}
</style>
<g>
	<rect x="112" y="6" class="st0" width="292.8" height="3"/>
	<rect x="113.2" y="23.9" class="st0" width="290.5" height="3"/>
	<rect x="116.5" y="41.8" class="st0" width="283.8" height="3"/>
	<rect x="122.3" y="59.7" class="st0" width="272.2" height="3"/>
	<rect x="130.8" y="77.5" class="st0" width="255.2" height="3"/>
	<rect x="142.6" y="95.5" class="st0" width="231.5" height="3"/>
	<rect x="158.9" y="113.5" class="st0" width="198.9" height="3"/>
	<rect x="182.8" y="131.2" class="st0" width="151.1" height="3"/>
	<rect x="228.4" y="149.2" class="st0" width="60.1" height="3"/>
</g>
<g>
	<path class="st0" d="M82,538c0-86.3,70-156.2,156.2-156.2S394.5,451.7,394.5,538"/>
</g>
<path class="st1" d="M393.6,230.3c-1,83.9-69.2,151.5-153.3,151.5V230.3H393.6z"/>
</svg>
