<?xml version="1.0" encoding="utf-8"?>
<!-- Generator: Adobe Illustrator 26.3.1, SVG Export Plug-In . SVG Version: 6.00 Build 0)  -->
<svg version="1.1" id="Layer_1" xmlns="http://www.w3.org/2000/svg" xmlns:xlink="http://www.w3.org/1999/xlink" x="0px" y="0px"
	 viewBox="0 0 183.6 62.1" style="enable-background:new 0 0 183.6 62.1;" xml:space="preserve">
<style type="text/css">
	.st0{fill:#3CBEE5;}
</style>
<g id="Layer_1_00000142896375867422390470000015169673587641721533_">
	<g>
		<polygon class="st0" points="15.2,4.1 6.4,4.1 6.4,56.4 39.4,56.4 39.4,49 15.2,49 		"/>
		<polygon class="st0" points="57.1,28.2 44.4,4.1 34.4,4.1 52.7,36.9 52.7,56.4 61.5,56.4 61.5,36.9 79.9,4.1 69.9,4.1 		"/>
		<polygon class="st0" points="172.4,4 172.4,40.6 148.1,4 139.8,4 139.8,56.3 148.5,56.3 148.5,19.9 172.5,55.8 172.8,56.3 
			181.1,56.3 181.1,4 		"/>
		<polygon class="st0" points="117.7,4.1 117.7,40.7 93.4,4.1 85.1,4.1 85.1,56.4 93.8,56.4 93.8,20 117.8,55.9 118.1,56.4 
			126.4,56.4 126.4,4.1 		"/>
	</g>
</g>
<g id="Layer_2_00000088092878867300027510000008139237643285933966_">
</g>
</svg>
